<svg width="100" height="100" viewBox="0 0 100 100" fill="none" xmlns="http://www.w3.org/2000/svg">
<path d="M55.4037 4.5C36.5537 4.5 21.3537 19.2501 20.4037 37.8L10.8037 50.45C9.60368 52 10.8037 54.5 12.9037 54.5H20.4037V69.5C20.4037 75.05 24.8537 79.5 30.4037 79.5H35.4037V94.5H70.4037V71.05C82.2537 65.45 90.4037 53.5 90.4037 39.5C90.4037 20.2001 74.8037 4.5 55.4037 4.5Z" fill="#749EBD"/>
<path fill-rule="evenodd" clip-rule="evenodd" d="M51.4991 28C51.7707 28.0001 52.0349 28.0886 52.2517 28.2522C52.4685 28.4158 52.6262 28.6455 52.7008 28.9067L54.0558 33.65C54.3475 34.6715 54.8948 35.6018 55.6461 36.353C56.3973 37.1043 57.3276 37.6516 58.3491 37.9433L63.0924 39.2983C63.3534 39.3731 63.583 39.5308 63.7464 39.7476C63.9098 39.9644 63.9982 40.2285 63.9982 40.5C63.9982 40.7715 63.9098 41.0356 63.7464 41.2524C63.583 41.4692 63.3534 41.6269 63.0924 41.7017L58.3491 43.0567C57.3276 43.3484 56.3973 43.8957 55.6461 44.647C54.8948 45.3982 54.3475 46.3285 54.0558 47.35L52.7008 52.0933C52.626 52.3543 52.4683 52.5839 52.2515 52.7473C52.0347 52.9107 51.7706 52.9991 51.4991 52.9991C51.2276 52.9991 50.9635 52.9107 50.7467 52.7473C50.5299 52.5839 50.3722 52.3543 50.2974 52.0933L48.9424 47.35C48.6507 46.3285 48.1034 45.3982 47.3521 44.647C46.6009 43.8957 45.6706 43.3484 44.6491 43.0567L39.9058 41.7017C39.6448 41.6269 39.4152 41.4692 39.2518 41.2524C39.0884 41.0356 39 40.7715 39 40.5C39 40.2285 39.0884 39.9644 39.2518 39.7476C39.4152 39.5308 39.6448 39.3731 39.9058 39.2983L44.6491 37.9433C45.6706 37.6516 46.6009 37.1043 47.3521 36.353C48.1034 35.6018 48.6507 34.6715 48.9424 33.65L50.2974 28.9067C50.372 28.6455 50.5297 28.4158 50.7465 28.2522C50.9633 28.0886 51.2275 28.0001 51.4991 28ZM66.4991 23C66.778 22.9998 67.0489 23.0929 67.2687 23.2645C67.4886 23.436 67.6448 23.6761 67.7124 23.9467L68.1424 25.6733C68.3356 26.4422 68.7336 27.1443 69.2942 27.7049C69.8548 28.2655 70.5569 28.6635 71.3258 28.8567L73.0524 29.2867C73.3235 29.3538 73.5642 29.5098 73.7363 29.7297C73.9084 29.9496 74.0019 30.2208 74.0019 30.5C74.0019 30.7792 73.9084 31.0504 73.7363 31.2703C73.5642 31.4902 73.3235 31.6462 73.0524 31.7133L71.3258 32.1433C70.5569 32.3365 69.8548 32.7345 69.2942 33.2951C68.7336 33.8557 68.3356 34.5578 68.1424 35.3267L67.7124 37.0533C67.6453 37.3244 67.4893 37.5651 67.2694 37.7372C67.0495 37.9093 66.7783 38.0028 66.4991 38.0028C66.2199 38.0028 65.9487 37.9093 65.7288 37.7372C65.5089 37.5651 65.3529 37.3244 65.2858 37.0533L64.8558 35.3267C64.6626 34.5578 64.2646 33.8557 63.704 33.2951C63.1434 32.7345 62.4413 32.3365 61.6724 32.1433L59.9458 31.7133C59.6747 31.6462 59.434 31.4902 59.2619 31.2703C59.0898 31.0504 58.9963 30.7792 58.9963 30.5C58.9963 30.2208 59.0898 29.9496 59.2619 29.7297C59.434 29.5098 59.6747 29.3538 59.9458 29.2867L61.6724 28.8567C62.4413 28.6635 63.1434 28.2655 63.704 27.7049C64.2646 27.1443 64.6626 26.4422 64.8558 25.6733L65.2858 23.9467C65.3534 23.6761 65.5096 23.436 65.7295 23.2645C65.9493 23.0929 66.2202 22.9998 66.4991 23Z" fill="#D2DBDF"/>
</svg>
